Coordinates
nRows=140
nColumns=2
inDegrees=yes
endheader
time	ankle_angle_r	
2.4375	 -0.350952	
2.5	 -0.355312	
2.5625	 -0.429608	
2.625	 -0.411987	
2.6875	 -0.417437	
2.75	 -0.414894	
2.8125	 -0.381470	
2.875	 -0.396729	
2.9375	 -0.381470	
3	 -0.377837	
3.0625	 -0.431061	
3.125	 -0.396729	
3.1875	 -0.427246	
3.25	 -0.438145	
3.3125	 -0.392187	
3.375	 -0.411987	
3.4375	 -0.371116	
3.5	 -0.396729	
3.5625	 -0.421978	
3.625	 -0.396729	
3.6875	 -0.427246	
3.75	 -0.433059	
3.8125	 -0.390734	
3.875	 -0.399635	
3.9375	 -0.381470	
4	 -0.396729	
4.0625	 -0.418708	
4.125	 -0.396729	
4.1875	 -0.403813	
4.25	 -0.419980	
4.3125	 -0.381833	
4.375	 -0.396729	
4.4375	 -0.343141	
4.5	 -0.366211	
4.5625	 -0.388554	
4.625	 -0.359308	
4.6875	 -0.350952	
4.75	 -0.357492	
4.8125	 -0.399272	
4.875	 -0.344776	
4.9375	 -0.375475	
5	 -0.430879	
5.0625	 -0.381470	
5.125	 -0.356402	
5.1875	 -0.366211	
5.25	 -0.340780	
5.3125	 -0.310080	
5.375	 -0.345139	
5.4375	 -0.320435	
5.5	 -0.335693	
5.5625	 -0.357855	
5.625	 -0.377473	
5.6875	 -0.423431	
5.75	 -0.354585	
5.8125	 -0.381470	
5.875	 -0.384739	
5.9375	 -0.381470	
6	 -0.442505	
6.0625	 -0.414712	
6.125	 -0.409444	
6.1875	 -0.424885	
6.25	 -0.353132	
6.3125	 -0.396729	
6.375	 -0.383286	
6.4375	 -0.364576	
6.5	 -0.411987	
6.5625	 -0.409444	
6.625	 -0.397818	
6.6875	 -0.382378	
6.75	 -0.335693	
6.8125	 -0.366211	
6.875	 -0.336057	
6.9375	 -0.320435	
7	 -0.411987	
7.0625	 -0.396365	
7.125	 -0.366938	
7.1875	 -0.381470	
7.25	 -0.292097	
7.3125	 -0.351860	
7.375	 -0.337873	
7.4375	 -0.306447	
7.5	 -0.381470	
7.5625	 -0.291552	
7.625	 -0.396729	
7.6875	 -0.425248	
7.75	 -0.340053	
7.8125	 -0.407264	
7.875	 -0.366211	
7.9375	 -0.371661	
8	 -0.445411	
8.0625	 -0.408899	
8.125	 -0.423976	
8.1875	 -0.427246	
8.25	 -0.377837	
8.3125	 -0.411987	
8.375	 -0.366211	
8.4375	 -0.366211	
8.5	 -0.449044	
8.5625	 -0.411987	
8.625	 -0.427246	
8.6875	 -0.416892	
8.75	 -0.381470	
8.8125	 -0.411987	
8.875	 -0.371661	
8.9375	 -0.387101	
9	 -0.446138	
9.0625	 -0.393459	
9.125	 -0.430153	
9.1875	 -0.427246	
9.25	 -0.357492	
9.3125	 -0.350952	
9.375	 -0.321888	
9.4375	 -0.335693	
9.5	 -0.358945	
9.5625	 -0.335330	
9.625	 -0.411987	
9.6875	 -0.380743	
9.75	 -0.358945	
9.8125	 -0.349862	
9.875	 -0.305176	
9.9375	 -0.368027	
10	 -0.366211	
10.0625	 -0.359853	
10.125	 -0.338600	
10.1875	 -0.350952	
10.25	 -0.345139	
10.3125	 -0.350952	
10.375	 -0.316075	
10.4375	 -0.406719	
10.5	 -0.391642	
10.5625	 -0.391824	
10.625	 -0.448318	
10.6875	 -0.360035	
10.75	 -0.396729	
10.8125	 -0.385648	
10.875	 -0.392732	
10.9375	 -0.442505	
11	 -0.430879	
11.0625	 -0.396729	
11.125	 -0.427246	
